<?xml version="1.0" standalone="no"?>
<!DOCTYPE svg PUBLIC "-//W3C//DTD SVG 20010904//EN"
 "http://www.w3.org/TR/2001/REC-SVG-20010904/DTD/svg10.dtd">
<svg version="1.0" xmlns="http://www.w3.org/2000/svg"
 width="700.000000pt" height="700.000000pt" viewBox="0 0 700.000000 700.000000"
 preserveAspectRatio="xMidYMid meet">
<metadata>
Created by potrace 1.14, written by Peter Selinger 2001-2017
</metadata>
<g transform="translate(0.000000,700.000000) scale(0.100000,-0.100000)"
fill="#000000" stroke="none">
<path d="M3313 6409 c-198 -12 -352 -38 -568 -94 -796 -207 -1490 -775 -1855
-1520 -88 -180 -135 -297 -179 -442 -167 -564 -167 -1142 0 -1706 44 -145 91
-262 179 -442 370 -755 1074 -1325 1886 -1528 265 -66 452 -90 724 -90 277 0
463 24 736 93 804 204 1506 775 1874 1525 160 326 248 628 291 995 14 122 14
478 0 600 -99 850 -524 1582 -1204 2070 -451 324 -959 503 -1533 540 -172 11
-171 11 -351 -1z m917 -1739 l145 -290 437 0 438 0 0 -880 0 -880 -728 0 -727
0 -148 295 -147 295 -365 0 -365 0 0 -730 0 -730 -220 0 -220 0 0 1605 0 1605
878 0 877 0 145 -290z"/>
</g>
</svg>
