<?xml version="1.0" encoding="UTF-8"?>
<svg width="210mm" height="297mm" version="1.1" viewBox="0 0 210 297" xmlns="http://www.w3.org/2000/svg">
 <path d="m29.21 8.5214c-0.74429-1.8202-4.2662-0.93125-4.043-3.3442-0.18212-2.08-1.4128-4.1218-3.2464-5.1576-1.9109-0.81981-3.9728 0.16709-5.9289-0.099805-1.9096-0.76909-1.3006-3.751-3.4198-4.2944-2.9294-1.0493-6.3859-0.53914-8.9409 1.1963-1.7067 0.85737-1.6282 3.0368-2.5152 4.1956-1.6395 0.74997-3.629 0.67777-5.0266 1.9534-1.2511 1.1503-1.1174 2.9844-1.8239 4.4158-1.3729 1.1287-3.8532 1.2505-4.097 3.4096-0.47916 1.9219 1.0901 4.1822 3.1838 3.9964 2.5454-5e-3 5.0892-0.12236 7.6347-0.03695 10.134-0.10644 20.006 0.67187 24.82-0.47068 4.8134-1.1426 4.5684-4.206 3.4034-5.7635z" fill="#b9b1a9" stroke="#000" stroke-width=".081708"/>
</svg>
